<svg xmlns="http://www.w3.org/2000/svg">
    <symbol id="openModal-icon" viewBox="0 0 20 20">
        <path d="M0 3h20v2H0V3zm0 6h20v2H0V9zm0 6h20v2H0v-2z" />
    </symbol>

    <symbol id="closeModal-icon" viewBox="0 0 20 20">
        <path d="M10 9 3 2 2 3l7 7-7 7 1 1 7-7 7 7 1-1-7-7 7-7-1-1-7 7z" />
    </symbol>

    <symbol id="headerGifButton-icon" viewBox="0 0 32 32">
        <path
            d="M16 0c-8.837 0-16 7.163-16 16s7.163 16 16 16 16-7.163 16-16-7.163-16-16-16zM16 28c-6.627 0-12-5.373-12-12s5.373-12 12-12c6.627 0 12 5.373 12 12s-5.373 12-12 12zM10 16c0-3.314 2.686-6 6-6s6 2.686 6 6c0 3.314-2.686 6-6 6s-6-2.686-6-6z">
        </path>
    </symbol>

    <symbol id="uaFlag-icon" viewBox="0 0 640 480">
        <g fill-rule="evenodd" stroke-width="1pt">
            <path fill="#ffd500" d="M0 0h640v480H0z" />
            <path fill="#005bbb" d="M0 0h640v240H0z" />
        </g>
    </symbol>

    <symbol id="gbFlag-icon" viewBox="0 0 60 30">
        <clipPath id="a">
            <path d="M0 0v30h60V0z" />
        </clipPath>
        <clipPath id="b">
            <path d="M30 15h30v15zv15H0zH0V0zV0h30z" />
        </clipPath>
        <g clip-path="url(#a)">
            <path fill="#012169" d="M0 0v30h60V0z" />
            <path stroke="#fff" stroke-width="6" d="m0 0 60 30m0-30L0 30" />
            <path stroke="#C8102E" stroke-width="4" d="m0 0 60 30m0-30L0 30" clip-path="url(#b)" />
            <path stroke="#fff" stroke-width="10" d="M30 0v30M0 15h60" />
            <path stroke="#C8102E" stroke-width="6" d="M30 0v30M0 15h60" />
        </g>
    </symbol>
</svg>